<?xml version="1.0" encoding="UTF-8"?>
<svg width="73px" height="35px" viewBox="0 0 73 35" version="1.1" xmlns="http://www.w3.org/2000/svg" xmlns:xlink="http://www.w3.org/1999/xlink">
    <!-- Generator: Sketch 43.2 (39069) - http://www.bohemiancoding.com/sketch -->
    <title>Group 2</title>
    <desc>Created with Sketch.</desc>
    <defs></defs>
    <g id="Page-1" stroke="none" stroke-width="1" fill="none" fill-rule="evenodd">
        <g id="Desktop" transform="translate(-202.000000, -31.000000)" fill="#FFFFFF">
            <g id="Group-2" transform="translate(202.000000, 31.000000)">
                <path d="M6.06445312,0.203125 L9.140625,0.203125 L9.140625,8.98339844 C9.140625,9.79785563 8.95166205,10.5244109 8.57373047,11.1630859 C8.19579889,11.801761 7.66846042,12.2968732 6.99169922,12.6484375 C6.31493802,13.0000018 5.56055104,13.1757812 4.72851562,13.1757812 C3.3339774,13.1757812 2.25000387,12.8242223 1.4765625,12.1210938 C0.703121133,11.4179652 0.31640625,10.4218814 0.31640625,9.1328125 L3.41015625,9.1328125 C3.41015625,9.71875293 3.51122946,10.1435534 3.71337891,10.4072266 C3.91552835,10.6708998 4.25390388,10.8027344 4.72851562,10.8027344 C5.15625214,10.8027344 5.48583869,10.643068 5.71728516,10.3237305 C5.94873163,10.0043929 6.06445312,9.55762006 6.06445312,8.98339844 L6.06445312,0.203125 Z M21.1201172,0.203125 L21.1201172,8.57910156 C21.1201172,9.52832506 20.9179708,10.3500942 20.5136719,11.0444336 C20.109373,11.738773 19.5293007,12.2675763 18.7734375,12.6308594 C18.0175743,12.9941424 17.1240286,13.1757812 16.0927734,13.1757812 C14.5341719,13.1757812 13.3066451,12.7714884 12.4101562,11.9628906 C11.5136674,11.1542928 11.0566407,10.046882 11.0390625,8.640625 L11.0390625,0.203125 L14.1416016,0.203125 L14.1416016,8.70214844 C14.176758,10.1025461 14.8271421,10.8027344 16.0927734,10.8027344 C16.7314485,10.8027344 17.2148421,10.6269549 17.5429688,10.2753906 C17.8710954,9.92382637 18.0351562,9.35254302 18.0351562,8.56152344 L18.0351562,0.203125 L21.1201172,0.203125 Z M33.7324219,13 L30.6650391,13 L26.1298828,5.03710938 L26.1298828,13 L23.0449219,13 L23.0449219,0.203125 L26.1298828,0.203125 L30.65625,8.16601562 L30.65625,0.203125 L33.7324219,0.203125 L33.7324219,13 Z M46.1601562,11.4179688 C45.6855445,11.9453151 44.9912155,12.3701156 44.0771484,12.6923828 C43.1630814,13.01465 42.1611383,13.1757812 41.0712891,13.1757812 C39.3954994,13.1757812 38.0566456,12.6630911 37.0546875,11.6376953 C36.0527294,10.6122996 35.5166019,9.18555602 35.4462891,7.35742188 L35.4375,6.25 C35.4375,4.99022808 35.660154,3.89014142 36.1054688,2.94970703 C36.5507835,2.00927264 37.1879841,1.28564707 38.0170898,0.778808594 C38.8461956,0.271970122 39.8056586,0.0185546875 40.8955078,0.0185546875 C42.4892658,0.0185546875 43.7270464,0.383297134 44.6088867,1.11279297 C45.4907271,1.8422888 46.0048821,2.93065683 46.1513672,4.37792969 L43.1806641,4.37792969 C43.0751948,3.66308236 42.8466814,3.15332184 42.4951172,2.84863281 C42.1435529,2.54394379 41.645511,2.39160156 41.0009766,2.39160156 C40.2275352,2.39160156 39.6298849,2.71972328 39.2080078,3.37597656 C38.7861307,4.03222984 38.5722657,4.96972047 38.5664062,6.18847656 L38.5664062,6.96191406 C38.5664062,8.2392642 38.7846658,9.19872726 39.2211914,9.84033203 C39.657717,10.4819368 40.3447219,10.8027344 41.2822266,10.8027344 C42.084965,10.8027344 42.6826152,10.6240252 43.0751953,10.2666016 L43.0751953,8.28027344 L40.9306641,8.28027344 L40.9306641,6.16210938 L46.1601562,6.16210938 L46.1601562,11.4179688 Z" id="JUNG"></path>
                <rect id="Rectangle-3" x="49" y="12" width="23" height="1"></rect>
                <rect id="Rectangle-3" x="0" y="33" width="15" height="1"></rect>
                <path d="M23.0644531,21.203125 L26.140625,21.203125 L26.140625,29.9833984 C26.140625,30.7978556 25.951662,31.5244109 25.5737305,32.1630859 C25.1957989,32.801761 24.6684604,33.2968732 23.9916992,33.6484375 C23.314938,34.0000018 22.560551,34.1757812 21.7285156,34.1757812 C20.3339774,34.1757812 19.2500039,33.8242223 18.4765625,33.1210938 C17.7031211,32.4179652 17.3164062,31.4218814 17.3164062,30.1328125 L20.4101562,30.1328125 C20.4101562,30.7187529 20.5112295,31.1435534 20.7133789,31.4072266 C20.9155284,31.6708998 21.2539039,31.8027344 21.7285156,31.8027344 C22.1562521,31.8027344 22.4858387,31.643068 22.7172852,31.3237305 C22.9487316,31.0043929 23.0644531,30.5576201 23.0644531,29.9833984 L23.0644531,21.203125 Z M31.3701172,34 L28.2939453,34 L28.2939453,21.203125 L31.3701172,21.203125 L31.3701172,34 Z M43.4287109,29.2275391 L44.8964844,21.203125 L47.9550781,21.203125 L45.2392578,34 L42.0400391,34 L40.3261719,26.7050781 L38.6474609,34 L35.4570312,34 L32.7324219,21.203125 L35.7998047,21.203125 L37.2675781,29.2275391 L39.0253906,21.203125 L41.6445312,21.203125 L43.4287109,29.2275391 Z M59.9960937,27.8652344 C59.9960937,29.1132875 59.7646508,30.2177686 59.3017578,31.1787109 C58.8388649,32.1396532 58.1811566,32.8793919 57.3286133,33.3979492 C56.47607,33.9165065 55.5048883,34.1757812 54.4150391,34.1757812 C53.3251899,34.1757812 52.3584027,33.9252955 51.5146484,33.4243164 C50.6708942,32.9233373 50.013186,32.2070359 49.5415039,31.2753906 C49.0698219,30.3437453 48.8222657,29.2744201 48.7988281,28.0673828 L48.7988281,27.3466797 C48.7988281,26.0927672 49.0288063,24.9868212 49.4887695,24.0288086 C49.9487328,23.070796 50.6079059,22.3310573 51.4663086,21.8095703 C52.3247113,21.2880833 53.3017523,21.0273438 54.3974609,21.0273438 C55.4814507,21.0273438 56.4482379,21.2851537 57.2978516,21.8007812 C58.1474652,22.3164088 58.8081031,23.0502882 59.2797852,24.0024414 C59.7514672,24.9545946 59.9902343,26.0458923 59.9960937,27.2763672 L59.9960937,27.8652344 Z M56.8583984,27.3291016 C56.8583984,26.0576108 56.6459982,25.0922885 56.2211914,24.4331055 C55.7963846,23.7739225 55.1884805,23.4443359 54.3974609,23.4443359 C52.8505782,23.4443359 52.0332036,24.6044806 51.9453125,26.9248047 L51.9365234,27.8652344 C51.9365234,29.1191469 52.1445292,30.0830044 52.5605469,30.7568359 C52.9765646,31.4306674 53.5947225,31.7675781 54.4150391,31.7675781 C55.1943398,31.7675781 55.7949198,31.4365267 56.2167969,30.7744141 C56.638674,30.1123014 56.852539,29.1601625 56.8583984,27.9179688 L56.8583984,27.3291016 Z M72.2744141,34 L69.2070312,34 L64.671875,26.0371094 L64.671875,34 L61.5869141,34 L61.5869141,21.203125 L64.671875,21.203125 L69.1982422,29.1660156 L69.1982422,21.203125 L72.2744141,21.203125 L72.2744141,34 Z" id="JIWON"></path>
            </g>
        </g>
    </g>
</svg>